<svg xmlns:dc="http://purl.org/dc/elements/1.1/" xmlns:cc="http://creativecommons.org/ns#" xmlns:rdf="http://www.w3.org/1999/02/22-rdf-syntax-ns#" xmlns:svg="http://www.w3.org/2000/svg" xmlns="http://www.w3.org/2000/svg" xmlns:sodipodi="http://sodipodi.sourceforge.net/DTD/sodipodi-0.dtd" xmlns:inkscape="http://www.inkscape.org/namespaces/inkscape" version="1.1" x="0px" y="0px" viewBox="0 0 100 125" xml:space="preserve"><path style="font-size:medium;font-style:normal;font-variant:normal;font-weight:normal;font-stretch:normal;text-indent:0;text-align:start;text-decoration:none;line-height:normal;letter-spacing:normal;word-spacing:normal;text-transform:none;direction:ltr;block-progression:tb;writing-mode:lr-tb;text-anchor:start;baseline-shift:baseline;opacity:1;color:#000000;fill:#000000;fill-opacity:1;stroke:none;stroke-width:4.00000047999999970;marker:none;visibility:visible;display:inline;overflow:visible;enable-background:accumulate;font-family:Sans;-inkscape-font-specification:Sans" d="M 14 10 C 9.7814585 10 6 12.94185 6 17 L 6 83 C 6 87.05815 9.7814585 90 14 90 L 30 90 C 32.323493 90 34.500488 89.104857 36 87.625 C 37.499512 89.104857 39.676507 90 42 90 L 58 90 C 60.323493 90 62.500488 89.104857 64 87.625 C 65.499512 89.104857 67.676507 90 70 90 L 86 90 C 90.218541 90 94 87.05815 94 83 L 94 17 C 94 12.94185 90.218541 10 86 10 L 70 10 C 67.676507 10 65.499512 10.895143 64 12.375 C 62.500488 10.895143 60.323493 10 58 10 L 42 10 C 39.676507 10 37.499512 10.895143 36 12.375 C 34.500488 10.895143 32.323493 10 30 10 L 14 10 z M 14 14 L 30 14 C 32.429453 14 34 15.517909 34 17 L 34 83 C 34 84.482091 32.429453 86 30 86 L 14 86 C 11.570547 86 10 84.482091 10 83 L 10 17 C 10 15.517909 11.570547 14 14 14 z M 42 14 L 58 14 C 60.429453 14 62 15.517909 62 17 L 62 83 C 62 84.482091 60.429453 86 58 86 L 42 86 C 39.570547 86 38 84.482091 38 83 L 38 17 C 38 15.517909 39.570547 14 42 14 z M 70 14 L 86 14 C 88.429453 14 90 15.517909 90 17 L 90 83 C 90 84.482091 88.429453 86 86 86 L 70 86 C 67.570547 86 66 84.482091 66 83 L 66 17 C 66 15.517909 67.570547 14 70 14 z M 15.8125 23 A 2.0021961 2.0021961 0 1 0 16 27 L 28 27 A 2.0002002 2.0002002 0 1 0 28 23 L 16 23 A 2.0002002 2.0002002 0 0 0 15.8125 23 z M 43.8125 23 A 2.0021961 2.0021961 0 1 0 44 27 L 56 27 A 2.0002002 2.0002002 0 1 0 56 23 L 44 23 A 2.0002002 2.0002002 0 0 0 43.8125 23 z M 71.8125 23 A 2.0021961 2.0021961 0 1 0 72 27 L 84 27 A 2.0002002 2.0002002 0 1 0 84 23 L 72 23 A 2.0002002 2.0002002 0 0 0 71.8125 23 z M 15.8125 28 A 2.0021961 2.0021961 0 1 0 16 32 L 28 32 A 2.0002002 2.0002002 0 1 0 28 28 L 16 28 A 2.0002002 2.0002002 0 0 0 15.8125 28 z M 43.8125 28 A 2.0021961 2.0021961 0 1 0 44 32 L 56 32 A 2.0002002 2.0002002 0 1 0 56 28 L 44 28 A 2.0002002 2.0002002 0 0 0 43.8125 28 z M 71.8125 28 A 2.0021961 2.0021961 0 1 0 72 32 L 84 32 A 2.0002002 2.0002002 0 1 0 84 28 L 72 28 A 2.0002002 2.0002002 0 0 0 71.8125 28 z M 15.8125 33 A 2.0021961 2.0021961 0 1 0 16 37 L 28 37 A 2.0002002 2.0002002 0 1 0 28 33 L 16 33 A 2.0002002 2.0002002 0 0 0 15.8125 33 z M 43.8125 33 A 2.0021961 2.0021961 0 1 0 44 37 L 56 37 A 2.0002002 2.0002002 0 1 0 56 33 L 44 33 A 2.0002002 2.0002002 0 0 0 43.8125 33 z M 71.8125 33 A 2.0021961 2.0021961 0 1 0 72 37 L 84 37 A 2.0002002 2.0002002 0 1 0 84 33 L 72 33 A 2.0002002 2.0002002 0 0 0 71.8125 33 z M 22 66 C 17.605412 66 14 69.605411 14 74 C 14 78.394588 17.605412 82 22 82 C 26.394588 82 30 78.394588 30 74 C 30 69.605411 26.394588 66 22 66 z M 50 66 C 45.605412 66 42 69.605411 42 74 C 42 78.394588 45.605412 82 50 82 C 54.394588 82 58 78.394588 58 74 C 58 69.605411 54.394588 66 50 66 z M 78 66 C 73.605412 66 70 69.605411 70 74 C 70 78.394588 73.605412 82 78 82 C 82.394588 82 86 78.394588 86 74 C 86 69.605411 82.394588 66 78 66 z M 22 70 C 24.232828 70 26 71.767172 26 74 C 26 76.232828 24.232828 78 22 78 C 19.767172 78 18 76.232828 18 74 C 18 71.767172 19.767172 70 22 70 z M 50 70 C 52.232828 70 54 71.767172 54 74 C 54 76.232828 52.232828 78 50 78 C 47.767172 78 46 76.232828 46 74 C 46 71.767172 47.767172 70 50 70 z M 78 70 C 80.232828 70 82 71.767172 82 74 C 82 76.232828 80.232828 78 78 78 C 75.767172 78 74 76.232828 74 74 C 74 71.767172 75.767172 70 78 70 z "/><text x="0" y="115" fill="#000000" font-size="5px" font-weight="bold" font-family="'Helvetica Neue', Helvetica, Arial-Unicode, Arial, Sans-serif">Created by arejoenah</text><text x="0" y="120" fill="#000000" font-size="5px" font-weight="bold" font-family="'Helvetica Neue', Helvetica, Arial-Unicode, Arial, Sans-serif">from the Noun Project</text></svg>