<svg xmlns="http://www.w3.org/2000/svg" xmlns:xlink="http://www.w3.org/1999/xlink" version="1.1" x="0px" y="0px" viewBox="0 0 100 85" style="enable-background:new 0 0 100 73.2;" xml:space="preserve"><style type="text/css">
	.st0{fill:none;stroke:#000000;stroke-linecap:round;stroke-linejoin:round;stroke-miterlimit:10;}
	.st1{fill:none;stroke:#000000;stroke-linecap:round;stroke-linejoin:round;stroke-miterlimit:1;}
</style><path class="st0" d="M14.7,42.1c0,0,0.5,0.5,0.4,1.2c0,0,0.8,0.2,0.6-0.5C15.7,42.8,15,41.4,14.7,42.1z"/><path class="st0" d="M9.6,35.3c0,0-1.4-2.9-4.2-1.9c0,0,0.3,0.2,0.1,0.5c0,0-0.3,0.3-0.2,0.5c0,0,0-0.4-0.5-0.5c0,0-0.3-0.6-0.8-0.9  c0,0,0.5,0,0.7-0.3c0,0,1.6,0,4.5-1.7c0,0,0.9,1.5,1,2c0,0,0.1,0.5-0.3,0.5C9.9,33.4,9.9,35,9.6,35.3z"/><path class="st0" d="M9.3,31c0,0,1-0.3,0.9-0.8c0,0,5.5-6.1,5.8-7.8c0,0,1.2,0.4,0.2,0.9c0,0-0.6,1-0.5,1.5c0,0,0.8,0.2,1.6,1.1  c0,0,0.7,0.6,0.3,1.1c0,0,0,0.4,0.6-0.4c0,0,0.6-1,0.6-1.3c0,0,0.5,0,0.3-0.4c0,0,0.7-0.9,1-0.9c0,0,0.4,0.3,0.5,0.5  c0,0,0.6,0.2,0.8,0c0,0,0.1-0.1,0-0.2c-0.1-0.4,0.9,0.6,0.3,0.9c0,0,0.3,0.8,0.6-0.1c0,0,0.5-0.3,0.5,0.8c0,0-0.2,0.5,0.4,1  c0,0-0.2,0.7,0.5,0.8c0,0,0.3,0.1,0.1,0.8c0,0,0.4,0.5,0.3,1.1c0,0-0.7,0.4-1,0c0,0-2.1-1.7-3.9-0.5c0,0-1,0.4-1.7,0.5  c0,0-0.6,0-0.9,0.5c0,0,0.6,0.4,0.9,1.3c0,0-0.7,0.3-0.2,0.7c0,0,0.9,0.3,0.3,1.8c0,0-0.3,0.4,0.4,0.9c0,0,0.7,0.2,1,0  c0,0,0.3,0.7-0.5,1.8c0,0-0.3,0.4-0.5,0.5s-0.6,0.1-0.6,0.5c0,0-1.2-0.2-1.1,0.9c0,0,0.4,1-0.6,1.7c0,0-0.1,0.4,0.3,0.6  c0,0,0.2,0.4-0.5,0.6c0,0,0.3,0.5-0.4,0.4c0,0-0.3-0.1-0.4,0c0,0-0.3-0.4-0.9-0.8c0,0,0-1.3-0.9-1.4c0,0,0.3-1.1-0.5-1.7  c0,0-0.4-0.7-1.4-0.8c0,0,0.2-0.4-0.5-0.7c0,0,0-0.9-0.6-1.1c0,0,0.1-0.1-0.3-0.4c0,0,0.3-0.2,0.3-1.9C9.9,33.4,11,33.8,9.3,31z"/><path class="st0" d="M16,22.3c0,0,2.8-3.9,2.8-5.1c0,0,0.1,0.2,0.8-0.3c0,0,0.2-0.3,1.9-0.1c0,0,0.2-0.3,0.4,0.1  c0,0,0.2-0.6,0.6-0.5c0,0,0.3-0.8,0.9-0.8c0,0,1.1-0.6,1.2-1.3l3.1-1.4c0,0,0.6-0.8,1.7-1.3l4,4.1c0,0,1.2,0.5,2-0.3l0.2-1.1  c0,0,2.1,0.1,2.8-0.4c0,0,0.3-0.1,0.8,0.5h4.6l1.6,0.9h2.4l1.1,1.8c0,0-1.9,2-3,2l-0.1,2.2c0,0,0.5,0.5-0.1,0.9c0,0-1,0.7,0.3,0.8  l1.8,0.9l1.6-0.2l-1.1,3.8c0,0,0.6,0.4-0.1,0.5h-0.6c0,0-0.1-0.7-0.3,0.1h-1.5l-1,0.5l1.3,2.8c0,0-0.6,0.8-0.7,1.2  c0,0-0.6-0.1-0.7,0.9c0,0,0,0.8-0.8,0.9L43,33.6l-1.7,1.1v0.4L37,34.3L35,33l0.2-1.1l-0.8-0.3l-0.7,0.3l-1-0.7h-0.8  c0,0-0.1,0.4-0.4,0.1c0,0-0.2-0.5,0.4-0.3c0,0,0.8,0.2,0.3-0.5c0,0-0.5-0.2-0.4-0.5c0,0-0.3-0.2-0.6,0.5c0,0-0.6,0.8-0.9-0.4  c0,0,0-0.4-0.5-0.4v-0.6c0,0-0.2,0.3-0.8-0.8L28.8,29c0,0-0.4,0.2-0.5,0.5L27,29.6l-0.1,0.3c0,0-1.1-0.3-1.5-0.1l-1.2-0.1  c0,0,0.2-0.5-0.3-1.1c0,0,0.3-0.6-0.1-0.8c0,0-0.5,0-0.5-0.8c0,0-0.5-0.3-0.4-1c0,0,0.2-0.8-0.5-0.8c0,0-0.3,0.8-0.6,0.1  c0,0,0.6-0.5-0.3-0.9c0,0,0,0.4-0.8,0.1c0,0-0.2-0.5-0.5-0.5c0,0-0.4,0.1-1,0.9c0,0,0.2,0.4-0.3,0.4c0,0-0.7,1.8-1.3,1.6  c0,0,0.9-0.8-1.9-2.2c0,0-0.1-0.5,0.5-1.5C16.2,23.2,17.2,22.7,16,22.3z"/><path class="st0" d="M19,35c0,0-0.3,0.3-1,0c0,0-0.7-0.4-0.4-0.9c0,0,0.6-1.4-0.3-1.8c0,0-0.6-0.3,0.2-0.7c0,0-0.3-0.9-0.9-1.3  c0,0,0.3-0.6,0.9-0.5c0,0,1.4-0.3,1.7-0.5c0,0,1.6-1.2,3.9,0.5c0,0,0.3,0.5,1,0l1.2,0.1c0,0,0.4-0.3,1.5,0.1l0.1-0.3l1.3-0.1  c0,0,0.1-0.4,0.5-0.5l0.1-0.6c0,0,0.6,0.9,0.8,0.8v0.6c0,0,0.5,0.1,0.5,0.4c0,0,0.3,1.1,0.9,0.4c0,0,0.1-0.6,0.6-0.5  c0,0-0.1,0.3,0.4,0.5c0,0,0.6,0.5-0.3,0.5c0,0-0.5-0.3-0.4,0.3c0,0,0.2,0.3,0.4-0.1h0.8l1,0.7l0.7-0.3l0.8,0.3l0,0.9  c0,0-0.2,0.5-0.1,0.8c0,0,0,0.8-0.1,0.9l-2.3-1c0,0-0.4-0.8-0.7-0.1c0,0-0.4,0.4-1.4-0.8c0,0-0.6,0-0.7,0.8c0,0,1,2.3-2.3,2.4  c0,0-0.6,0.6-0.6,0c0,0-0.7-0.4-2.2-0.2c0,0-1-0.9-2.7-0.3c0,0-0.4-0.3-0.4-0.6C21.4,35.1,19.6,35.5,19,35z"/><path class="st1" d="M25.5,50.2"/><path class="st0" d="M28.1,56.4H16.2c0,0,0.3,0.8-0.6,0.8c0,0,0.6,0.5,0,0.8c0,0,0.8-0.1-0.6,4.2c0,0,0.7,0.6,0.2,1.2  c0,0-0.2,0.5,0.3,1.2c0,0,0.1,0.9-0.5,1.9c0,0,0,1.2,0.9,1.7c0,0,0,1,0.9,0.2c0,0,0.9,0.5,1.8,0c0,0,1,0.3,1.4,0h1.2l2.4-1.4  c0,0,1.7,0.3,2.3-0.3l1.7,0.5l1.1-0.1c0,0,0-0.5-0.6-0.3c0,0-0.5-0.1,0-0.6c0,0-0.5-0.3-0.8-0.9c0,0,0.5-1.3-0.8-1.2  c0,0-0.1-0.3,0-0.6c0,0,0.4-0.2,0-0.7c0,0,0.7-0.2,0.4-1.1c0,0,0.8-0.4,0.2-0.9c0,0-0.4-0.5,0-0.9c0,0,0.4-0.1,0.3-0.4  c0,0,0.5-0.2,0.6-1c0,0,0.6-0.5,0.2-0.8C28.1,57.6,27.3,57.4,28.1,56.4z"/><path class="st0" d="M60.7,12.4c0,0,0.9-1.3-0.4-0.5c0,0-1.1,0.1-1.5,0.7c0,0-0.3-0.3-0.4-0.7c0,0,0.5-0.7-0.5-0.6  c0,0,0-0.9-0.9-0.3c0,0,0.7-1-0.3-0.9c0,0-0.2-0.5,0.5-0.4c0,0,0.2-0.6-1.2-0.7l-0.7-1c0,0-1.2-1.3-1.8-1.3c0,0-0.2-1.3-1-0.2  c0,0,0.2-1.6-1-0.7c0,0,0.9-1.7-0.9-1.1c0,0-0.4-0.6-0.7,0.1c0,0-1.4,0.5-3,0.2c0,0,0.8-0.6-0.8-0.3c0,0-0.5-0.1-0.7,0.4  c0,0-0.5-1.1-1.4-0.2c0,0-0.6-1-1.5,0.1c0,0-0.3-2.2-1.4,0c0,0-0.3,0-0.8-0.7c0,0-1.1,0.5-0.1,0.9c0,0-0.2,0.6-1.2,0.2l-0.9,0.5  c0,0-1-0.4-1.3-0.3c0,0-1.1,0.3-1.4,0.6c0,0-0.5-1.2-1-0.6c0,0-0.8,0-0.4,0.8c0,0-0.5,0.5-1.1,0c0,0-1-0.3-0.7,0.6  c0,0-0.9,0-1.2,0.2c0,0-0.1,0-0.1,0.1c0,0.2-0.9-0.7-2.2-0.2c0,0,0.2-1.1-1.5,0.1c0,0-0.6-0.8-1.3,0.2c0,0-0.2-0.6-0.8-0.8  c0,0,0.3-1.2-1.4,0.2c0,0-1.3-0.8-1.3,0.6c0,0-0.5,0.3-0.3,1.1c0,0-0.4-0.2-0.4,0.5c0,0,0,0.5-0.3,0.5c0,0-0.5,0.5,0,0.9  c0,0-0.3,0.8-0.6,0.9c0,0-0.6-0.5-0.9,0.8c0,0,0.7,0.8-0.2,1.2c0,0-0.5,0.3-0.7,0.3c0,0,0.3,2.8-0.3,3.8c0,0,0.3,0.1,0.8-0.3  c0,0,0.4-0.4,1.9-0.1c0,0,0.2-0.4,0.4,0.1c0,0,0.2-0.7,0.6-0.5c0,0,0.2-0.8,0.9-0.8c0,0,1-0.6,1.2-1.3l3.1-1.4c0,0,0.7-1,1.7-1.3  l4,4.1c0,0,1.2,0.5,2-0.3l0.2-1.1c0,0,2.2,0,2.8-0.4c0,0,0.5-0.1,0.8,0.5h4.6l1.6,0.9h2.4l2.8,4.6v0.5l-0.3,0.7c0,0,0.5,0.2,0,0.7  l1.4,0.1l0.5-0.5l0.3,0.3l0.4-0.5v-0.5l5.9-6.5l1.6-0.5l0.2-1.5L60.7,12.4z"/><path class="st0" d="M44.1,47.5c0,0-1.9-0.5-2.5-0.2c0,0-0.9-1.4-3.6,0.7c0,0-0.8-0.9-2.1-0.3c0,0-0.6-1-1.8-0.7  c0,0-0.9-1.3-1.5,0.1c0,0-0.4,1.2-1.2,0c0,0-0.5-0.6,0-1.2c0,0,0.2-0.6-1-1.2c0,0-0.6-0.1-0.6-1c0,0,0.1-0.4-0.9-0.5  c0,0-0.2-0.5,0.1-0.9v-0.9l0.7-1.7c0,0-0.4-2,0.7-2.4c0,0,0.3-0.2,0.4-0.6c0,0,0.4-0.4,0.6,0.2l0.4-0.2v-0.3l2.8-1v-0.7  c0,0,0.1-0.5,0.1-0.9c0,0-0.1-0.5,0.1-0.8l2.1,1.3l4.3,0.8v-0.4l1.7-1.1l0.6,0.7l0.2-0.1l0.4,0.5L46,35l1.1,0.6L47,39.5l0.6,0.6  l0.2,1.7l-0.2,0.8l0.2,1.5l-0.5,1l-1.1,0.6l-0.5,1.1h-1.1L44.1,47.5z"/><path class="st0" d="M23.1,39c0,0,2.3-0.3,2.9-0.2c0,0,0.4,0.7,1.1,0c0,0,0.6-0.8,1.1-0.1h1.6c0,0-0.1,0.7,0.1,1l-0.7,1.7v0.9  c0,0-0.3,0.5-0.1,0.9c0,0,0.9,0,0.9,0.5c0,0,0,0.9,0.6,1c0,0,1.2,0.6,1,1.2c0,0-0.5,0.5,0,1.2c0,0,0.6,1.2,1.2,0  c0,0,0.5-1.3,1.5-0.1c0,0,1.3-0.2,1.8,0.7c0,0-1.3,0.7-1.4,2.5l-9-0.2c0,0-1.3-1.3-1.1-2.4c0,0-0.9-0.1-1.3-0.7c0,0,0.2-0.4,0-0.7  c0,0,0.9-0.2,0.8-1c0,0,0.3-1.1-0.6-1.2c0,0-1.2,0.1,0-0.8v-0.9l-1.1-0.7c0,0-0.5-0.2-1.1,0.1l0.3-0.4c0,0-0.3-0.6,0.1-0.6  c0,0-0.2-0.7,0.3-0.6C21.9,40.1,22.9,39.5,23.1,39z"/><path class="st0" d="M25.5,50.2l-7.1,0.2c0,0,0.2-0.5-0.2-0.5c0,0,1.3-0.2,1.1-1.5c0,0-0.2-0.5-0.4,0.3c0,0-0.6,1.2-1.3,0.6  c0,0-0.6-0.7,0.3-1.7c0,0,0.7-1.4,1.6-0.2c0,0-0.2-1.7,0.3-2.9c0,0-0.9,2.2-2.1,2.2c0,0-0.5,1-1.3,1.1c0,0-0.7,0.3-0.4-1.9  c0,0-0.3-1.8,1.4-1.2c0,0,2-0.5,2-1.3c0,0,0.4-0.5,0.4-0.9c0,0,0-0.7-0.9,0.2c0,0-0.6,1.2-1.6,1.6C16.4,44.5,17,43,17,43  s-0.6,0.2-1.2,1.6c0,0-0.6,0.6-0.6-1.4c0,0,1-0.1-0.1-1.2c0,0,0.6,0.2,0.4-0.4c0,0,0.6,0,0.5-0.6c0,0-0.3,0-0.3-0.6  c0,0,0.8-0.4,0.6-1.7c0,0-0.1-1.1,1.1-0.9c0,0,0.1-0.5,0.6-0.5c0,0,1.3-1,1-2.2c0,0,0.9,0.5,2.4,0.1c0,0,0.1,0.5,0.4,0.6  c0,0,1.3-0.8,2.7,0.3c0,0,1.2-0.3,2.2,0.2c0,0,0,0.6,0.6,0c0,0,3.1,0,2.3-2.4c0,0,0-0.8,0.7-0.8c0,0,0.8,1.1,1.4,0.8  c0,0,0.3-0.8,0.7,0.1l2.3,1v0.7l-2.8,1V37l-0.4,0.2c0,0-0.1-0.6-0.6-0.2c0,0-0.1,0.4-0.4,0.6c0,0-0.8,0.4-0.7,1.4h-1.6  c0,0-0.4-0.7-1.1,0.1c0,0-0.5,0.7-1.1,0c0,0-0.6-0.2-2.9,0.2c0,0-0.3,0.6-1.2,1.1c0,0-0.5-0.1-0.3,0.6c0,0-0.4,0-0.1,0.6L21.2,42  c0,0,0.5-0.3,1.1-0.1l1.1,0.7v0.9c0,0-1.2,0.9,0,0.8c0,0,0.8,0,0.6,1.2c0,0,0,0.8-0.8,1c0,0,0.2,0.3,0,0.7c0,0,0.4,0.7,1.3,0.7  C24.4,47.8,24.3,48.9,25.5,50.2z"/><path class="st0" d="M35.6,53.5c0,0-0.9-0.1-1.6-0.4c0,0-0.3,0.9-1.8,0.7c0,0-0.3-0.8-1.5,0c0,0-0.6,0.2-1.1,0v2.8l-1.4-0.2  c0,0-0.8,1.1,0,1.1c0,0,0.5,0.2-0.2,0.8c0,0-0.1,0.9-0.6,1c0,0,0.1,0.3-0.3,0.4c0,0-0.4,0.3,0,0.9c0,0,0.6,0.4-0.2,0.9  c0,0,0.5,0.7-0.4,1.1c0,0,0.4,0.5,0,0.7c0,0-0.2,0.5,0,0.6c0,0,1.2-0.1,0.8,1.2c0,0,0.3,0.7,0.8,0.9c0,0-0.6,0.5,0,0.6  c0,0,0.6-0.2,0.6,0.3l2.8,0.4l1.1-0.3l1.6-0.8l1.1-0.6l1.4-1l1-0.5l1.3-0.7h0.3c-0.1-0.9,0.5-1.5,0.5-1.5c0.5-1.4-0.6-2.1-0.6-2.1  c0.3-1.3-0.9-1.2-0.9-1.2c0.1-1.4-0.5-1.5-0.5-1.5c0.2-0.9-1.4-1-1.4-1c-0.4-1,0-2.6,0-2.6H35.6z"/><path class="st0" d="M39.2,63.6c-0.1-0.9,0.5-1.5,0.5-1.5c0.5-1.4-0.6-2.1-0.6-2.1c0.3-1.3-0.9-1.2-0.9-1.2c0.1-1.4-0.5-1.5-0.5-1.5  c0.2-0.9-1.4-1-1.4-1c-0.4-1,0-2.6,0-2.6l2.1-1.7c0.3-1.8,1.8-1.9,1.8-1.9c1.4,2.1,3.7,2.2,3.7,2.2c0.5,0.6,1.3,0.4,1.3,0.4  c1.6,2.2,2.7,1,2.7,1c0.6,0.9,1.7,0.8,1.7,0.8c0.7,1.1,1.8,1.1,1.8,1.1c1.3-0.6,1.4,0,1.4,0h1.6c0.3-1.3,1-0.9,1-0.9  c0.9,0.1,1.7-0.5,1.7-0.5c2.5,0.3,2.2-1.8,2.2-1.8s-0.2-0.4-0.8-1l0.5-0.1l0.1-0.6l0.5,0.1l-0.2,0.3C59,52.7,60,51.7,60,51.7  c1.7,0.1,0.2,0.7,0.2,0.7c0.3,0.5-0.3,0.9-0.3,0.9c2.7-0.4,1.1,0.5,1.1,0.5c1.2-0.4,0.4,1,0.4,1c1-0.5,0.6,0.5,0.6,0.5  c1.3-0.5,0.3,1.5,0.3,1.5c0.5,0.8,1.4,1.7,1.4,1.7c0.9,0.5,0.5,1.6,0.5,1.6c1.2,0.4,0.6,1.2,0.6,1.2c-0.4,0.2-0.2,2.1-0.2,2.1  c0.5,0.8,1.1,0,1.1,0c0.9-0.5,0.6,0.6,0.6,0.6l-3.5-0.3L39.2,63.6z"/><path class="st0" d="M77.4,67.7c-0.2-0.2-0.3-0.4-0.3-0.4h-1.9c0-0.7-0.5-0.7-0.5-0.7c-0.6,0.2-0.8-0.5-0.8-0.5  c-0.2,0-0.5-0.3-0.5-0.3c-1-0.6-1,0.9-1,0.9c-0.2,0.5-1.2,0-1.2,0c-0.9,0.2-0.7-0.8-0.7-0.8c0.6-1.3,0-1.6,0-1.6  c-0.3,0.4-0.8,0-0.8,0s-0.1-0.1-0.3-0.2c0.1-0.2,0.3-0.5-0.1-0.8c0,0,0-0.9,0.1-0.9c0.1-0.1,0.1-0.1,0.1-0.1s0.1-0.7-0.6-0.6  c0,0-0.5-0.4-0.2-1.5c0,0-1.5-1.1-0.9-1.5c0,0,0.7-0.9,1.7,0.2c0,0,1.1,0,1.4-0.6c0,0,1-0.5,1.7,0.6c0.8,1.2,2-0.5,2-0.5  s1.1-0.2,1.2-1.1c0,0-0.2-1,1.3-0.9c0,0,1.1,0.7,1.8-0.8c0,0,0.8-1.2,1.8-0.2c0,0,0.5,0,0.6-0.8c0,0,1.7,0.5,0.6-1  c0,0-0.2-1.9,1.5-0.4c0,0,1.3,0.5,1.8,1.2s1.4-0.5,1.4-0.5s1-0.8,1.5-0.3c0,0,0.3,0.3,0.5,0.6c0.5,1.2,1.1,0,1.1,0  c0.3-1.5,0.7-1,0.7-1c0.7,0.8,1.3,0.4,1.3,0.4c-0.2,0.7,0.5,0.3,0.5,0.3l0.3,0.9c1.4,0.2,0.7,1.5,0.7,1.5c0.9-0.1,0.6,0.6,0.4,0.8  c0.1,0.2,0.5,0.5,0.5,0.5c0.9-0.1,0.9,0.8,0.9,0.8c0.1,1.6,0.5,1.3,0.5,1.3c0.6-1,0.6,0.3,0.6,0.3c0.1,0.4-0.8,0.3-0.8,0.3  c0.1,0,0.1,0.5,0.1,0.5c0,0.3-0.1,1-0.1,1c0.8-0.3,0.1,0.7,0.1,0.7l0.3,0.7c-1-0.2-1.1,0.9-1.1,0.9c1.1,0.4,0.3,0.9,0.3,0.9  c0.4,0.2,0.2,0.6,0.2,0.6c-0.7,0.3,0,0.7,0,0.7c1.5-0.3,0.6,1.2,0.6,1.2c0.1,0.9-1.2-0.1-1.2-0.1h-1.3c0,0.3-1.9,0.3-1.9,0.3  c-0.6,0.7-2,0.3-2,0.3c-0.8,0.2-1.6-0.5-1.6-0.5c-1,1.1-2,0.2-2,0.2c-0.1-0.4-0.8,0-0.8,0L84,68.3l-1.1,0.2c-2,1.1-2.1,0.6-2.1,0.6  c-0.4-1.4-1.9-1.2-1.9-1.2c-0.9,0.9-1.3,0-1.3,0C77.5,67.8,77.4,67.8,77.4,67.7z"/><path class="st0" d="M88.1,53.3c-0.5-0.6-1.5,0.3-1.5,0.3s-0.8,1.3-1.4,0.5S83.4,53,83.4,53c-1.7-1.5-1.5,0.4-1.5,0.4  c1,1.5-0.6,1-0.6,1c-0.1,0.8-0.6,0.8-0.6,0.8c-1-1-1.8,0.2-1.8,0.2c-0.8,1.6-1.8,0.8-1.8,0.8c-1.5-0.1-1.3,0.9-1.3,0.9  c-0.1,0.9-1.2,1.1-1.2,1.1s-1.2,1.6-2,0.5c-0.8-1.2-1.7-0.6-1.7-0.6c-0.3,0.7-1.4,0.6-1.4,0.6c-1-1-1.7-0.2-1.7-0.2  C67.2,59,68.7,60,68.7,60c-0.3,1.2,0.2,1.5,0.2,1.5c0.7-0.1,0.6,0.6,0.6,0.6s0,0-0.1,0.1s-0.1,0.9-0.1,0.9c0.5,0.4,0,0.9,0,0.9  c-0.2,0-0.5,0.1-0.5,0.1c-0.5-0.5-0.7,0-0.7,0c-0.1-0.5-0.8-0.2-0.8-0.2c-0.4,0.6-1,0-1,0c0.3-1.1-0.6-0.6-0.6-0.6  c-0.7,0.8-1.1,0-1.1,0c-0.3-2.1,0.2-2.1,0.2-2.1c0.5-1-0.6-1.2-0.6-1.2c0.5-1.3-0.5-1.6-0.5-1.6c-0.7-0.5-1.4-1.7-1.4-1.7  c1-2.2-0.3-1.5-0.3-1.5c0.4-1.1-0.6-0.5-0.6-0.5c0.9-1.4-0.4-1-0.4-1c1.5-1.1-1.1-0.5-1.1-0.5c0.7-0.4,0.3-0.9,0.3-0.9  c1.4-0.7-0.2-0.7-0.2-0.7c-1.2,0.9-0.3-0.9-0.3-0.9l-0.5-0.1l-0.1,0.6l-0.5,0.1c-0.2-0.8-1.5-1.1-1.5-1.1L56,50.6l-0.8-0.2  c-1.4,0.2-2.3,1.2-2.3,1.2l-1,0.3C51,52.3,49.6,51,49.6,51c-1.4-3.3-3.6-1.1-3.6-1.1c-1-0.2-1.3-0.9-1.3-0.9  c0.1-1.4-0.6-1.5-0.6-1.5l0.6-0.7h1.1l0.5-1.1l1.1-0.6l0.5-1l-0.2-1.5l0.2-0.8l-0.2-1.7L47,39.5l0.2-3.4l2.1-0.4l1-1.2  c0.8,0.2,1.1-0.3,1.1-0.3c0.3,1,1.1,1.2,1.1,1.2l4.1,1.3l2.2,1.1h5l4-2.9l4.3,0.7l2.5-0.4l1.1-0.4l1-1.6l0.9-3  c-0.2-0.1-0.3-1.1-0.3-1.1L76,27.8c1-0.5,2.1,1,2.1,1c1.8-0.1,1.4,2,1.4,2c0.7,1.2,1.8,0.9,1.8,0.9c-0.2,0.4,1,0.9,1,0.9  c0.5,0,0.5,0.5,0.5,0.5c0.5,0,0.4,0.5,0.4,0.5c1.2,0.4,0.9,1.2,0.9,1.2c-0.6,0.5-0.5,1.1-0.5,1.1h-0.4l-0.1,0.9  c0.5,0.5,0.4,1.4,0.4,1.4c2.3,0.1,1.3,1.2,1.3,1.2l1.2,0.4l0.6,1.8l-0.3,1.2c-0.8,1.7,0.9,2.4,0.9,2.4c-0.3,1.1-0.2,1.6-0.2,1.6  c-0.4,0.7-1.9,1.5-1.9,1.5l0.3,0.4c0.2,1.3,0.8,1.5,0.8,1.5l0.5,0.9c1.8,0.6,1.6,1.1,1.6,1.1C88,52.7,88,53.1,88.1,53.3"/><path class="st0" d="M47.2,36.2v-0.5l-1.1-0.6l-1.9-0.3l-0.4-0.5c0.6-0.3,0.6-0.8,0.6-0.8c0-1.1,0.7-0.9,0.7-0.9l0.7-1.2l-1.3-2.8  l1-0.5H47c0.3-0.8,0.3-0.1,0.3-0.1c1.6,0.1,0.7-0.5,0.7-0.5l1.1-3.8l-1.6,0.2L45.7,23c-1.3-0.1-0.3-0.8-0.3-0.8  c0.7-0.3,0.1-0.9,0.1-0.9l0.1-2.2c0.9,0.1,3-2,3-2l1.8,2.8v0.5l-0.3,0.7c0.4,0.5,0,0.7,0,0.7l1.4,0.1l0.5-0.5l0.3,0.3l0.4-0.5v-0.5  l5.9-6.5l1.6-0.5l0.2-1.5l0.7,0.7c0.4-0.5,0.9-0.3,0.9-0.3c0.7-0.7,1.5-0.4,1.5-0.4l0.5-0.4l0.3,0.4C63,13,64,12.9,64,12.9  c0.7-0.7,0.6,0,0.6,0l1.1,0.5c-0.5,1.3,0.7,2,0.7,2c-0.5,0.6,0.2,0.8,0.2,0.8c-0.2,0.6,0.5,1.1,0.5,1.1c-0.5,0-0.3,0.4-0.3,0.4  c1.9,1.4,1.1,1.3,1.1,1.3c-1.2,0,0,1,0,1c0.3-0.5,1.4,0.2,1.4,0.2c1.1,0.6,0.3,1.4,0.3,1.4c1.3,1.1,2-0.2,2-0.2v0.9l0.6,0.2  c-0.8,0.7,0,1.4,0,1.4c2.1,0.5,1.1,1.3,1.1,1.3C72.8,25,73,25.6,73,25.6c0.5,0,0.7,0.6,0.7,0.6c1.4-0.7,0.8,0.8,0.8,0.8  c0.7,0,1.5,0.8,1.5,0.8l1.2,1.6c0,0,0.1,1,0.3,1.1l-0.9,3l-1,1.6l-1.1,0.4L72,35.9l-4.3-0.7l-4,2.9h-5L56.5,37l-4.1-1.3  c0,0-0.7-0.2-1.1-1.2c0,0-0.3,0.5-1.1,0.3l-1,1.2L47.2,36.2"/></svg>
