<svg xmlns="http://www.w3.org/2000/svg" xmlns:xlink="http://www.w3.org/1999/xlink" version="1.1" x="0px" y="0px" viewBox="0 0 100 119.565" enable-background="new 0 0 100 95.652" xml:space="preserve"><g><path fill="#000000" d="M19.565,69.565H10.87c-1.201,0-2.174,0.973-2.174,2.174v8.696c0,1.201,0.973,2.174,2.174,2.174h8.696   c1.201,0,2.174-0.973,2.174-2.174v-8.696C21.739,70.539,20.766,69.565,19.565,69.565z M17.391,78.261h-4.348v-4.348h4.348V78.261z"/><path fill="#000000" d="M19.565,23.913H10.87c-1.201,0-2.174,0.973-2.174,2.174v8.696c0,1.201,0.973,2.174,2.174,2.174h8.696   c1.201,0,2.174-0.973,2.174-2.174v-8.696C21.739,24.886,20.766,23.913,19.565,23.913z M17.391,32.609h-4.348v-4.348h4.348V32.609z"/><path fill="#000000" d="M19.565,39.13H10.87c-1.201,0-2.174,0.973-2.174,2.174V50c0,1.201,0.973,2.174,2.174,2.174h8.696   c1.201,0,2.174-0.973,2.174-2.174v-8.696C21.739,40.104,20.766,39.13,19.565,39.13z M17.391,47.826h-4.348v-4.348h4.348V47.826z"/><path fill="#000000" d="M19.565,54.348H10.87c-1.201,0-2.174,0.973-2.174,2.174v8.696c0,1.201,0.973,2.174,2.174,2.174h8.696   c1.201,0,2.174-0.973,2.174-2.174v-8.696C21.739,55.321,20.766,54.348,19.565,54.348z M17.391,63.043h-4.348v-4.348h4.348V63.043z"/><path fill="#000000" d="M19.565,8.696H10.87c-1.201,0-2.174,0.973-2.174,2.174v8.696c0,1.201,0.973,2.174,2.174,2.174h8.696   c1.201,0,2.174-0.973,2.174-2.174V10.87C21.739,9.669,20.766,8.696,19.565,8.696z M17.391,17.391h-4.348v-4.348h4.348V17.391z"/><path fill="#000000" d="M71.739,69.565h-8.696c-1.201,0-2.174,0.973-2.174,2.174v8.696c0,1.201,0.973,2.174,2.174,2.174h8.696   c1.201,0,2.174-0.973,2.174-2.174v-8.696C73.913,70.539,72.94,69.565,71.739,69.565z M69.565,78.261h-4.348v-4.348h4.348V78.261z"/><path fill="#000000" d="M71.739,39.13h-8.696c-1.201,0-2.174,0.973-2.174,2.174V50c0,1.201,0.973,2.174,2.174,2.174h8.696   c1.201,0,2.174-0.973,2.174-2.174v-8.696C73.913,40.104,72.94,39.13,71.739,39.13z M69.565,47.826h-4.348v-4.348h4.348V47.826z"/><path fill="#000000" d="M71.739,54.348h-8.696c-1.201,0-2.174,0.973-2.174,2.174v8.696c0,1.201,0.973,2.174,2.174,2.174h8.696   c1.201,0,2.174-0.973,2.174-2.174v-8.696C73.913,55.321,72.94,54.348,71.739,54.348z M69.565,63.043h-4.348v-4.348h4.348V63.043z"/><path fill="#000000" d="M47.826,0H2.174C0.973,0,0,0.973,0,2.174v91.304c0,1.201,0.973,2.174,2.174,2.174s2.174-0.973,2.174-2.174   V4.348h41.304v89.13c0,1.201,0.973,2.174,2.174,2.174S50,94.679,50,93.478V2.174C50,0.973,49.027,0,47.826,0z"/><path fill="#000000" d="M97.826,30.435H56.522c-1.201,0-2.174,0.973-2.174,2.174v60.87c0,1.201,0.973,2.174,2.174,2.174   s2.174-0.973,2.174-2.174V34.783h36.957v58.696c0,1.201,0.973,2.174,2.174,2.174c1.201,0,2.174-0.973,2.174-2.174v-60.87   C100,31.408,99.027,30.435,97.826,30.435z"/><path fill="#000000" d="M39.13,69.565h-8.696c-1.201,0-2.174,0.973-2.174,2.174v8.696c0,1.201,0.973,2.174,2.174,2.174h8.696   c1.201,0,2.174-0.973,2.174-2.174v-8.696C41.304,70.539,40.331,69.565,39.13,69.565z M36.957,78.261h-4.348v-4.348h4.348V78.261z"/><path fill="#000000" d="M39.13,23.913h-8.696c-1.201,0-2.174,0.973-2.174,2.174v8.696c0,1.201,0.973,2.174,2.174,2.174h8.696   c1.201,0,2.174-0.973,2.174-2.174v-8.696C41.304,24.886,40.331,23.913,39.13,23.913z M36.957,32.609h-4.348v-4.348h4.348V32.609z"/><path fill="#000000" d="M39.13,39.13h-8.696c-1.201,0-2.174,0.973-2.174,2.174V50c0,1.201,0.973,2.174,2.174,2.174h8.696   c1.201,0,2.174-0.973,2.174-2.174v-8.696C41.304,40.104,40.331,39.13,39.13,39.13z M36.957,47.826h-4.348v-4.348h4.348V47.826z"/><path fill="#000000" d="M39.13,54.348h-8.696c-1.201,0-2.174,0.973-2.174,2.174v8.696c0,1.201,0.973,2.174,2.174,2.174h8.696   c1.201,0,2.174-0.973,2.174-2.174v-8.696C41.304,55.321,40.331,54.348,39.13,54.348z M36.957,63.043h-4.348v-4.348h4.348V63.043z"/><path fill="#000000" d="M39.13,8.696h-8.696c-1.201,0-2.174,0.973-2.174,2.174v8.696c0,1.201,0.973,2.174,2.174,2.174h8.696   c1.201,0,2.174-0.973,2.174-2.174V10.87C41.304,9.669,40.331,8.696,39.13,8.696z M36.957,17.391h-4.348v-4.348h4.348V17.391z"/><path fill="#000000" d="M91.304,69.565h-8.696c-1.201,0-2.174,0.973-2.174,2.174v8.696c0,1.201,0.973,2.174,2.174,2.174h8.696   c1.201,0,2.174-0.973,2.174-2.174v-8.696C93.478,70.539,92.505,69.565,91.304,69.565z M89.13,78.261h-4.348v-4.348h4.348V78.261z"/><path fill="#000000" d="M91.304,39.13h-8.696c-1.201,0-2.174,0.973-2.174,2.174V50c0,1.201,0.973,2.174,2.174,2.174h8.696   c1.201,0,2.174-0.973,2.174-2.174v-8.696C93.478,40.104,92.505,39.13,91.304,39.13z M89.13,47.826h-4.348v-4.348h4.348V47.826z"/><path fill="#000000" d="M91.304,54.348h-8.696c-1.201,0-2.174,0.973-2.174,2.174v8.696c0,1.201,0.973,2.174,2.174,2.174h8.696   c1.201,0,2.174-0.973,2.174-2.174v-8.696C93.478,55.321,92.505,54.348,91.304,54.348z M89.13,63.043h-4.348v-4.348h4.348V63.043z"/></g><text x="0" y="110.652" fill="#000000" font-size="5px" font-weight="bold" font-family="'Helvetica Neue', Helvetica, Arial-Unicode, Arial, Sans-serif">Created by Alice Cerconi</text><text x="0" y="115.652" fill="#000000" font-size="5px" font-weight="bold" font-family="'Helvetica Neue', Helvetica, Arial-Unicode, Arial, Sans-serif">from the Noun Project</text></svg>