<svg xmlns="http://www.w3.org/2000/svg" xmlns:xlink="http://www.w3.org/1999/xlink" version="1.1" x="0px" y="0px" viewBox="0 0 100 105" enable-background="new 0 0 100 100" xml:space="preserve"><path d="M79.52,39.067H66.4H51.968c-1.083,0-1.968-0.887-1.968-1.969V19.932V8.453c0-4.21-1.649-4.63-3.666-0.934L33.6,30.867  L18.77,58.053c-0.864,1.584-0.095,2.881,1.71,2.881h13.119c8.2,0,14.432,0,14.432,0c1.082,0,1.969,0.885,1.969,1.967v17.168v11.479  c0,4.209,1.648,4.629,3.664,0.933L66.4,69.134l14.83-27.188C82.093,40.362,81.325,39.067,79.52,39.067z"/><text x="0" y="115" fill="#000000" font-size="5px" font-weight="bold" font-family="'Helvetica Neue', Helvetica, Arial-Unicode, Arial, Sans-serif">Created by David</text><text x="0" y="120" fill="#000000" font-size="5px" font-weight="bold" font-family="'Helvetica Neue', Helvetica, Arial-Unicode, Arial, Sans-serif">from the Noun Project</text></svg>
