<svg xmlns:dc="http://purl.org/dc/elements/1.1/" xmlns:cc="http://creativecommons.org/ns#" xmlns:rdf="http://www.w3.org/1999/02/22-rdf-syntax-ns#" xmlns:svg="http://www.w3.org/2000/svg" xmlns="http://www.w3.org/2000/svg" xmlns:sodipodi="http://sodipodi.sourceforge.net/DTD/sodipodi-0.dtd" xmlns:inkscape="http://www.inkscape.org/namespaces/inkscape" version="1.1" x="0px" y="0px" viewBox="0 0 100 90"><g transform="translate(0,-952.36218)"><path style="text-indent:0;text-transform:none;direction:ltr;block-progression:tb;baseline-shift:baseline;color:#000000;enable-background:accumulate;" d="M 17.8125,959.36658 A 1.0001,1.0000488 0 0 0 17,960.36653 l 0,6.99964 -9,0 a 1.0001,1.0000488 0 0 0 -1,0.99995 l 0,37.99808 a 1.0001,1.0000488 0 0 0 1,0.9999 l 12,0 a 1.0001,1.0000488 0 0 0 1,-0.9999 c 0,-13.73519 12.899839,-24.99874 29,-24.99874 16.100161,0 28.946117,11.25879 29,24.99874 a 1.0001,1.0000488 0 0 0 1,0.9999 l 12,0 a 1.0001,1.0000488 0 0 0 1,-0.9999 l 0,-37.99808 a 1.0001,1.0000488 0 0 0 -1,-0.99995 l -9,0 0,-6.99964 a 1.0001,1.0000488 0 0 0 -1,-0.99995 l -12,0 a 1.0001,1.0000488 0 0 0 -1,0.99995 l 0,6.99964 -12,0 0,-6.99964 a 1.0001,1.0000488 0 0 0 -1,-0.99995 l -12,0 a 1.0001,1.0000488 0 0 0 -1,0.99995 l 0,6.99964 -12,0 0,-6.99964 a 1.0001,1.0000488 0 0 0 -1,-0.99995 l -12,0 a 1.0001,1.0000488 0 0 0 -0.1875,0 z m 1.1875,1.9999 10,0 0,6.99964 a 1.0001,1.0000488 0 0 0 1,0.99995 l 14,0 a 1.0001,1.0000488 0 0 0 1,-0.99995 l 0,-6.99964 10,0 0,6.99964 a 1.0001,1.0000488 0 0 0 1,0.99995 l 14,0 a 1.0001,1.0000488 0 0 0 1,-0.99995 l 0,-6.99964 10,0 0,6.99964 a 1.0001,1.0000488 0 0 0 1,0.99995 l 9,0 0,35.99813 -10.125,0 C 80.219241,990.85402 66.657134,979.36556 50,979.36556 c -16.647039,0 -30.256114,11.49654 -30.875,25.99864 l -10.125,0 0,-35.99813 9,0 a 1.0001,1.0000488 0 0 0 1,-0.99995 l 0,-6.99964 z m 19.8125,29.99847 a 1.0001,1.0000488 0 0 0 -0.65625,0.46872 l -31,51.99733 A 1.0001,1.0000488 0 0 0 8,1045.3622 l 84,0 a 1.0001,1.0000488 0 0 0 0.84375,-1.5312 l -31,-51.99733 A 1.0001,1.0000488 0 0 0 61,991.36495 l -22,0 a 1.0001,1.0000488 0 0 0 -0.1875,0 z m 0.71875,1.99989 9.46875,0 0,5.9997 a 1.0001,1.0000488 0 1 0 2,0 l 0,-5.9997 9.46875,0 29.78125,49.99746 -39.25,0 0,-7.9996 a 1.0001,1.0000488 0 0 0 -1.125,-1.0312 1.0001,1.0000488 0 0 0 -0.875,1.0312 l 0,7.9996 -39.25,0 29.78125,-49.99746 z M 49.875,1010.3327 A 1.0001,1.0000488 0 0 0 49,1011.3639 l 0,9.9995 a 1.0001,1.0000488 0 1 0 2,0 l 0,-9.9995 a 1.0001,1.0000488 0 0 0 -1.125,-1.0312 z" fill="#000000" fill-opacity="1" stroke="none" marker="none" visibility="visible" display="inline" overflow="visible"/></g><text x="0" y="115" fill="#000000" font-size="5px" font-weight="bold" font-family="'Helvetica Neue', Helvetica, Arial-Unicode, Arial, Sans-serif">Created by sevgenjory</text><text x="0" y="120" fill="#000000" font-size="5px" font-weight="bold" font-family="'Helvetica Neue', Helvetica, Arial-Unicode, Arial, Sans-serif">from the Noun Project</text></svg>
