<svg xmlns="http://www.w3.org/2000/svg" xmlns:xlink="http://www.w3.org/1999/xlink" version="1.1" x="0px" y="0px" viewBox="0 0 48 48" enable-background="new 0 0 48 48" xml:space="preserve"><path d="M21.486,40.394c0.328,0,0.642-0.136,0.866-0.372c0.512-0.545,12.529-13.412,12.529-23.738  c0-11.247-8.011-15.33-13.395-15.33c-6.667,0-13.395,4.74-13.395,15.33c0,10.326,12.017,23.193,12.528,23.738  C20.844,40.258,21.158,40.394,21.486,40.394z M21.486,3.335c4.426,0,11.013,3.448,11.013,12.948c0,7.869-8.276,18-11.013,21.135  c-2.737-3.135-11.014-13.267-11.014-21.135C10.472,6.727,16.405,3.335,21.486,3.335z"/><path d="M29.672,15.983c0-4.514-3.672-8.186-8.186-8.186c-4.514,0-8.186,3.672-8.186,8.186c0,4.514,3.672,8.186,8.186,8.186  C26,24.169,29.672,20.497,29.672,15.983z M15.682,15.983c0-3.2,2.604-5.804,5.804-5.804c3.201,0,5.804,2.604,5.804,5.804  c0,3.201-2.603,5.805-5.804,5.805C18.286,21.788,15.682,19.184,15.682,15.983z"/><path d="M4.668,40.749c0,4.007,8.46,6.102,16.818,6.102s16.818-2.095,16.818-6.102c0-2.163-2.371-3.893-6.856-5.007  c-0.638-0.16-1.284,0.228-1.443,0.867c-0.158,0.64,0.23,1.284,0.869,1.444c3.679,0.911,5.05,2.137,5.05,2.695  c0,1.263-5.096,3.721-14.437,3.721S7.049,42.012,7.049,40.749c0-0.579,1.449-1.845,5.334-2.763c0.64-0.151,1.035-0.793,0.884-1.433  c-0.151-0.642-0.795-1.035-1.433-0.886C7.146,36.777,4.668,38.535,4.668,40.749z"/><text x="0" y="63" fill="#000000" font-size="5px" font-weight="bold" font-family="'Helvetica Neue', Helvetica, Arial-Unicode, Arial, Sans-serif">Created by Lee</text><text x="0" y="68" fill="#000000" font-size="5px" font-weight="bold" font-family="'Helvetica Neue', Helvetica, Arial-Unicode, Arial, Sans-serif">from the Noun Project</text></svg>
