<svg xmlns="http://www.w3.org/2000/svg" xmlns:xlink="http://www.w3.org/1999/xlink" version="1.1" x="0px" y="0px" viewBox="0 0 98.8 123.5" style="enable-background:new 0 0 98.8 98.8;" xml:space="preserve"><style type="text/css">
	.st0{fill-rule:evenodd;clip-rule:evenodd;}
</style><g><path class="st0" d="M96.7,28L70.8,53.9c-2.9,2.9-7.5,2.9-10.4,0l-2.6-2.6l5.2-5.2c1.4,1.4,3.7,1.4,5.2,0l20.7-20.7   c1.4-1.4,1.4-3.7,0-5.2L78.5,9.9c-1.4-1.4-3.7-1.4-5.2,0L52.6,30.6c-1.4,1.4-1.4,3.7,0,5.2L47.5,41l-2.6-2.6   c-2.9-2.9-2.9-7.5,0-10.4L70.8,2.1c2.9-2.9,7.5-2.9,10.4,0l15.5,15.5C99.5,20.5,99.5,25.2,96.7,28z M31.9,66.9   c-1.4-1.4-1.4-3.7,0-5.2L63,30.6c1.4-1.4,3.7-1.4,5.2,0c1.4,1.4,1.4,3.7,0,5.2L37.1,66.9C35.7,68.3,33.4,68.3,31.9,66.9z    M30.6,52.6L9.9,73.3c-1.4,1.4-1.4,3.7,0,5.2l10.4,10.4c1.4,1.4,3.7,1.4,5.2,0l20.7-20.7c1.4-1.4,1.4-3.7,0-5.2l5.2-5.2l2.6,2.6   c2.9,2.9,2.9,7.5,0,10.4L28,96.7c-2.9,2.9-7.5,2.9-10.4,0L2.1,81.1c-2.9-2.9-2.9-7.5,0-10.4L28,44.9c2.9-2.9,7.5-2.9,10.4,0   l2.6,2.6l-5.2,5.2C34.4,51.2,32.1,51.2,30.6,52.6z"/></g><text x="0" y="113.8" fill="#000000" font-size="5px" font-weight="bold" font-family="'Helvetica Neue', Helvetica, Arial-Unicode, Arial, Sans-serif">Created by Ashwin Dinesh</text><text x="0" y="118.8" fill="#000000" font-size="5px" font-weight="bold" font-family="'Helvetica Neue', Helvetica, Arial-Unicode, Arial, Sans-serif">from the Noun Project</text></svg>