<svg xmlns="http://www.w3.org/2000/svg" xmlns:xlink="http://www.w3.org/1999/xlink" version="1.0" x="0px" y="0px" viewBox="0 0 100 125" enable-background="new 0 0 100 100" xml:space="preserve"><g><g><path d="M36.5711517,25.3903294c0.662632,0,1.2000008-0.5373592,1.2000008-1.1999989v-5.8863602    c0-0.6626396-0.5373688-1.2000008-1.2000008-1.2000008c-0.6627693,0-1.1999969,0.5373611-1.1999969,1.2000008v5.8863602    C35.3711548,24.8529701,35.9083824,25.3903294,36.5711517,25.3903294z"/><path d="M25.2109833,29.0817699c0.2443199,0,0.4910393-0.0743999,0.7042809-0.2290802    c0.5361595-0.3897591,0.6550884-1.1402397,0.26544-1.6763992l-3.4599514-4.761961    c-0.3896484-0.5349598-1.1384487-0.65448-1.6763992-0.26544c-0.5361691,0.3896408-0.6550903,1.1402397-0.2654495,1.6764011    l3.459959,4.7619591C24.4738235,28.9100494,24.8394642,29.0817699,25.2109833,29.0817699z"/><path d="M18.5587845,36.4047699l-5.5980005-1.8187218c-0.6316805-0.2027969-1.3072805,0.141243-1.5123606,0.7705231    c-0.2044697,0.6304779,0.1400404,1.3071594,0.7705202,1.5122375l5.5981207,1.81884    c0.1229992,0.0398407,0.2483997,0.0591621,0.3708,0.0591621c0.506279,0,0.976799-0.3229218,1.1414394-0.8296814    C19.533783,37.2866516,19.1892643,36.6098518,18.5587845,36.4047699z"/><path d="M17.8170643,48.35149l-5.5981207,1.8187218c-0.6304798,0.2050781-0.9749899,0.8818779-0.7705202,1.5123596    c0.1646404,0.5067596,0.6351604,0.8296776,1.1414404,0.8296776c0.1225204,0,0.2477999-0.0193176,0.3709202-0.0592804    l5.5980005-1.818718c0.6304798-0.2050819,0.9749985-0.8817596,0.7705193-1.5122414    C19.1248245,48.4932098,18.4504242,48.1486893,17.8170643,48.35149z"/><path d="M47.9319038,29.0817699c0.3713989,0,0.7370377-0.1717205,0.9720001-0.4945202l3.4593582-4.7619591    c0.3896408-0.5361614,0.2707214-1.2867603-0.2654381-1.6764011c-0.5372429-0.3884392-1.2866402-0.2695198-1.6762695,0.26544    l-3.4593735,4.761961c-0.389637,0.5361595-0.2707176,1.2866402,0.2654419,1.6763992    C47.4408646,29.00737,47.6875839,29.0817699,47.9319038,29.0817699z"/><path d="M76.7242203,54.97789c0.0076828-0.2227211,0.0111618-0.445919,0.0111618-0.6680412    c0-10.7150383-8.5512009-19.4319572-19.0617599-19.4319572c-2.745121,0-5.3986778,0.6065979-7.8124695,1.7141991    c-2.5072899-4.790041-7.5189705-8.0710812-13.2900009-8.0710812c-8.269928,0-14.9983273,6.728281-14.9983273,14.9988003    c0,3.623642,1.2923985,6.950882,3.4396782,9.5462418c-1.8048,2.6869202-2.8606796,5.9170799-2.8606796,9.3901176    c0,9.3111572,7.5750008,16.8861618,16.8860416,16.8861618h36.4054794c6.7359543,0,12.2156372-5.4796829,12.2156372-12.2156372    C87.6589813,60.8230896,82.8601837,55.6200104,76.7242203,54.97789z M75.4433441,76.9423294H39.0378647    c-7.987442,0-14.486042-6.4987183-14.486042-14.4861603c0-2.8016396,0.8126411-5.4110374,2.1955204-7.6300774    c0.4263611-0.6843605,0.9061203-1.3296013,1.4371204-1.9316406c2.6564407-3.0116425,6.5314903-4.9244423,10.8534012-4.9244423    h0.2743187c1.3227615,0,2.5328407,0.1248016,3.6478806,0.3421211c1.707119,0.3326416,3.183239,0.8894386,4.4535599,1.5918007    c0.7294807,0.4034386,1.391758,0.8535576,1.9930801,1.3349991c3.0376778,2.4319191,4.5147591,5.65308,5.1747589,7.6064415    c0.3211212,0.9506378,0.4500008,1.6019974,0.4707603,1.7128792c0.1205978,0.651001,0.7458,1.0804787,1.396801,0.9621582    c0.6509972-0.1195183,1.0822792-0.7424393,0.9638367-1.3933182c-0.0178795-0.0988808-1.315197-6.7702789-6.9238777-11.04636    c-0.6306-0.4807205-1.3196411-0.9280815-2.0636406-1.3354797c-1.5003586-0.82164-3.2340012-1.4725189-5.2483177-1.8394814    c1.34832-2.4259186,3.2462387-4.4347191,5.4826775-5.9061584c0.6836395-0.4497604,1.3988419-0.8475609,2.1406822-1.1917191    c2.1225586-0.9848404,4.4561996-1.5300026,6.8732376-1.5300026c9.187561,0,16.6617584,7.640522,16.6617584,17.0319595    c0,0.5244026-0.0233994,1.0530014-0.0697174,1.5721207c-0.0644379,0.3292809,0.0122375,0.6731987,0.2150421,0.9457207    c0.2261963,0.304081,0.5835571,0.4833603,0.9626389,0.4833603c5.4123611,0,9.8156357,4.4032784,9.8156357,9.8156433    C85.2589798,72.5389328,80.8557053,76.9423294,75.4433441,76.9423294z M23.9728241,43.5198097    c0-6.9469185,5.6513996-12.5988007,12.5983276-12.5988007c4.8584328,0,9.0758324,2.7692413,11.1769104,6.8078423    c-3.0003586,1.8662376-5.4944382,4.5685196-7.1222382,7.8775177c-0.4272003-0.0239983-0.8654404-0.0363579-1.3136406-0.0363579    h-0.2743187c-4.9492798,0-9.393961,2.1535187-12.485281,5.5570793    C24.9414635,49.0104103,23.9728241,46.3791695,23.9728241,43.5198097z"/></g></g><text x="0" y="115" fill="#000000" font-size="5px" font-weight="bold" font-family="'Helvetica Neue', Helvetica, Arial-Unicode, Arial, Sans-serif">Created by Yu luck</text><text x="0" y="120" fill="#000000" font-size="5px" font-weight="bold" font-family="'Helvetica Neue', Helvetica, Arial-Unicode, Arial, Sans-serif">from the Noun Project</text></svg>