<svg xmlns="http://www.w3.org/2000/svg" xmlns:xlink="http://www.w3.org/1999/xlink" version="1.1" x="0px" y="0px" viewBox="0 0 100 125" style="enable-background:new 0 0 100 100;" xml:space="preserve"><path d="M44.3,90.7c0.5-2.5,0.6-5.2,1.5-7.5c4.4-11,9.7-21.1,20-28.4c11.3-7.9,20-18.6,25-31.8c1.7-4.4,2.3-9.2,3.6-14.4  c2-0.5,3.4,0.5,3,3.4c-2.1,14.2-7.8,26.6-18.8,36.3C73,53.3,67.3,58,62,63.3c-6.7,6.5-10.3,15-13.5,23.6c-0.6,1.6-1.7,3-2.6,4.6  C45.4,91.2,44.8,91,44.3,90.7z"/><path d="M81.2,11.9c3.4,1.2,2.1,2.9,0.6,4.5C69.9,29.5,57.4,41.7,41.4,49.6c-4,2-8.2,3.7-12.3,5.6c-10.5,4.7-17.5,12.5-21,23.5  c-0.8,2.5-1.5,5.1-2.5,7.5c-0.3,0.8-1.4,1.3-2.1,1.9c-0.3-1-1.2-2.1-0.9-3c4-15.3,11.3-27.6,27.3-33.3C42.4,47.3,53.5,40.1,63.3,31  c4.3-4,8.7-8,12.8-12.2C78,16.8,79.4,14.3,81.2,11.9z"/><path d="M25,87.5c-0.6-1.3-1.6-2.5-1.4-3.1c2.3-5.6,4.7-11.1,7.3-16.5c0.3-0.6,1.9-0.8,2.8-0.7c0.5,0,1.3,1.5,1.2,1.7  c-3.7,5.4-2.6,13-8.1,17.4C26.4,86.6,26,86.8,25,87.5z"/><path d="M43.3,56.4c3.9-2.3,7.8-4.7,11.8-6.8c0.7-0.3,2,0.7,3.1,1.1c-0.4,0.9-0.6,2.2-1.2,2.6c-2.9,1.8-5.8,3.5-8.9,4.9  c-1.2,0.6-2.8,0.3-4.3,0.4C43.7,57.8,43.5,57.1,43.3,56.4z"/><path d="M66.9,39.6c2.3-1.9,4.5-4,7-5.7c0.5-0.3,2.1,1,3.2,1.5c-2,1.9-3.8,3.9-6,5.5c-0.9,0.6-2.5,0.1-3.8,0.1  C67.1,40.6,67,40.1,66.9,39.6z"/><path d="M83.5,28.4c-1-2.2-2.2-3.7-1.9-4.4c1.3-2.3,3-4.4,4.6-6.6c0.6,1.1,1.9,2.5,1.6,3.2C87,22.9,85.6,25,83.5,28.4z"/><text x="0" y="115" fill="#000000" font-size="5px" font-weight="bold" font-family="'Helvetica Neue', Helvetica, Arial-Unicode, Arial, Sans-serif">Created by Daria Moskvina</text><text x="0" y="120" fill="#000000" font-size="5px" font-weight="bold" font-family="'Helvetica Neue', Helvetica, Arial-Unicode, Arial, Sans-serif">from the Noun Project</text></svg>