<svg xmlns="http://www.w3.org/2000/svg" xmlns:xlink="http://www.w3.org/1999/xlink" version="1.1" x="0px" y="0px" viewBox="0 0 52 55" enable-background="new 0 0 52 52" xml:space="preserve"><g><path d="M47.9949837,10.9950256l-0.0700073-0.9300537h-0.9199829c-10.0100098,0-20.2999878-7.7199707-20.4000244-7.789978   l-0.5999756-0.460022l-0.6099854,0.460022c-0.1000366,0.0700073-10.3699961,7.789978-20.3900146,7.789978H4.0749998   l-0.0700073,0.9300537C3.984973,11.2649841,2.2249632,38.2649841,25.5549812,49.9649963l0.4500122,0.2200317l0.4500122-0.2200317   C49.775013,38.2649841,48.0150032,11.2649841,47.9949837,10.9950256z M44.0067024,14.8078308   c-0.3183594,6.3510742-2.6601563,22.0449219-17.5048828,30.5864258l-0.5,0.2871094l-0.4990234-0.2875977   c-14.7060556-8.4804688-17.125-24.2124023-17.4824219-30.5825195l-0.0517578-0.9086914l0.9003906-0.1362305   c6.984375-1.0566406,13.3945322-4.6484375,16.59375-6.6953125l0.5390625-0.3447266l0.5390625,0.3447266   c3.2041016,2.050293,9.6240234,5.6464872,16.6152344,6.6982422l0.8955078,0.1347656L44.0067024,14.8078308z"/><path d="M10.077014,15.5925016c0.5087891,6.4335909,3.1376953,20.0922813,15.9267588,27.7748985   c12.9121094-7.734375,15.4804688-21.3588867,15.9501953-27.7705078c-6.625-1.1948242-12.6162109-4.4223633-15.9521484-6.5009766   C22.6717415,11.1706238,16.6922493,14.3923035,10.077014,15.5925016z M30.0018196,38.0671082h-8v-2h8V38.0671082z    M33.0018196,33.0671082h-14v-2h14V33.0671082z M31.0016975,21.0672913c0,3.8660278-2.2385864,7-5,7s-5-3.1339722-5-7   c0-3.8659668,2.2385864-7,5-7S31.0016975,17.2013245,31.0016975,21.0672913z"/></g><text x="0" y="67" fill="#000000" font-size="5px" font-weight="bold" font-family="'Helvetica Neue', Helvetica, Arial-Unicode, Arial, Sans-serif">Created by Dinosoft Labs</text><text x="0" y="72" fill="#000000" font-size="5px" font-weight="bold" font-family="'Helvetica Neue', Helvetica, Arial-Unicode, Arial, Sans-serif">from the Noun Project</text></svg>
