<svg xmlns="http://www.w3.org/2000/svg" xmlns:xlink="http://www.w3.org/1999/xlink" version="1.1" x="0px" y="0px" viewBox="0 0 100 125" enable-background="new 0 0 100 100" xml:space="preserve"><path d="M90.4,75.6l-25-25c-0.798-0.795-1.997-0.802-2.801,0L57.7,55.5l-1.2-1.2l10.9-10.9c0.6-0.6,0.8-1.6,0.399-2.4l1.601-1.6  c0.8-0.8,0.8-2,0-2.8l-6-6c-0.799-0.798-1.998-0.801-2.801,0L59,32.2c-0.491-0.328-1.655-0.345-2.4,0.4l-11,10.9l-1.2-1.2l4.9-4.9  c0.8-0.8,0.8-2,0-2.8l-25-25c-0.551-0.735-1.834-0.866-2.7,0l-12,12c-0.8,0.8-0.8,2,0,2.8l25,25c0.798,0.798,1.999,0.801,2.8,0  l4.9-4.9l1.2,1.2l-9.8,9.8C32.9,55,32,54.8,31,54.8c-1.7,0-3.2,0.601-4.4,1.8l-1,1c-0.8,0.801-0.8,2,0,2.801l6.1,6.1l-6.1,5.8  c-0.5-0.2-1-0.3-1.6-0.3c-2.2,0-4,1.8-4,4s1.8,4,4,4s4-1.8,4-4c0-0.6-0.1-1.1-0.3-1.6l6.1-5.9l5.8,5.8  c0.763,0.954,2.014,0.886,2.8,0.101l1-1c1.9-1.9,2.3-4.801,1.2-7.2l9.8-9.8L55.6,57.6L50.7,62.5c-0.8,0.8-0.8,2,0,2.8l25,25  c0.565,0.943,1.911,0.888,2.7,0.101l12-12C91.2,77.6,91.2,76.4,90.4,75.6z M17,18.4l5.1,5.1l-4.6,4.6L12.4,23L17,18.4z M40.1,29.5  l-4.6,4.6l-4.6-4.6l4.6-4.6L40.1,29.5z M34.1,23.5l-4.6,4.6l-4.6-4.6l4.6-4.6L34.1,23.5z M28.1,29.5l-4.6,4.6l-4.6-4.6l4.6-4.6  L28.1,29.5z M23.5,22.1L18.4,17l4.6-4.6l5.1,5.1L23.5,22.1z M24.9,35.5l4.6-4.6l4.6,4.6l-4.6,4.6L24.9,35.5z M35.5,36.9l5.1,5.1  L36,46.6l-5.1-5.1L35.5,36.9z M36.9,35.5l4.6-4.6l5.1,5.1L42,40.6L36.9,35.5z M24,75c0.6,0,1,0.4,1,1s-0.4,1-1,1s-1-0.4-1-1  S23.4,75,24,75z M28.7,58.7c1.3-1.3,3.3-1.3,4.6,0l8,8c0.6,0.6,1,1.399,1,2.3s-0.3,1.7-1,2.3L41,71.6L28.4,59L28.7,58.7z M65,39.6  L60.4,35l1.6-1.6l4.6,4.6L65,39.6z M64.6,42L44.5,62.1l-6.6-6.6L58,35.4L64.6,42z M36.5,56.9l6.6,6.6L42,64.6L35.4,58L36.5,56.9z   M83,81.6l-5.1-5.1l4.6-4.6l5.1,5.1L83,81.6z M70.5,69.1l-4.6-4.6l4.6-4.6l4.6,4.6L70.5,69.1z M76.5,65.9l4.6,4.6l-4.6,4.6l-4.6-4.6  L76.5,65.9z M69.1,70.5l-4.6,4.6l-4.6-4.6l4.6-4.6L69.1,70.5z M64.5,63.1L59.4,58l4.6-4.6l5.1,5.1L64.5,63.1z M63.1,64.5l-4.6,4.6  L53.4,64l4.6-4.6L63.1,64.5z M65.9,76.5l4.6-4.6l4.6,4.6l-4.6,4.6L65.9,76.5z M76.5,77.9l5.1,5.1L77,87.6l-5.1-5.1L76.5,77.9z"/><text x="0" y="115" fill="#000000" font-size="5px" font-weight="bold" font-family="'Helvetica Neue', Helvetica, Arial-Unicode, Arial, Sans-serif">Created by Setyo Ari Wibowo</text><text x="0" y="120" fill="#000000" font-size="5px" font-weight="bold" font-family="'Helvetica Neue', Helvetica, Arial-Unicode, Arial, Sans-serif">from the Noun Project</text></svg>