<svg xmlns:dc="http://purl.org/dc/elements/1.1/" xmlns:cc="http://creativecommons.org/ns#" xmlns:rdf="http://www.w3.org/1999/02/22-rdf-syntax-ns#" xmlns:svg="http://www.w3.org/2000/svg" xmlns="http://www.w3.org/2000/svg" xmlns:sodipodi="http://sodipodi.sourceforge.net/DTD/sodipodi-0.dtd" xmlns:inkscape="http://www.inkscape.org/namespaces/inkscape" version="1.1" x="0px" y="0px" viewBox="0 0 100 125"><g transform="translate(0,-952.36218)"><path style="text-indent:0;text-transform:none;direction:ltr;block-progression:tb;baseline-shift:baseline;color:#000000;enable-background:accumulate;" d="m 59.6172,986.31532 c -7.7211,0 -14.23635,5.5319 -15.78125,12.8125 l 2.40625,0 c 1.4805,-6.0491 6.8835,-10.5625 13.375,-10.5625 7.6343,0 13.75,6.24074 13.75,13.87498 0,7.6343 -6.1157,13.75 -13.75,13.75 -6.4234,0 -11.7657,-4.3281 -13.3125,-10.25 l -2.4375,0 c 1.6169,7.1576 8.0961,12.4687 15.75,12.4687 8.8605,0 16.0625,-7.1083 16.0625,-15.9687 0,-8.86034 -7.202,-16.12498 -16.0625,-16.12498 z m -0.28125,6.125 c -4.3618,0 -8.0737,2.7802 -9.4375,6.6875 l 2.5,0 c 1.2213,-2.6464 3.8297,-4.46875 6.9375,-4.46875 4.2742,0 7.71875,3.47584 7.71875,7.74993 0,4.2743 -3.44455,7.6875 -7.71875,7.6875 -2.989,0 -5.5333,-1.6856 -6.8125,-4.1562 l -2.53125,0 c 1.4435,3.7449 5.08925,6.375 9.34375,6.375 5.5004,0 10.03125,-4.4058 10.03125,-9.9063 0,-5.50039 -4.53085,-9.96868 -10.03125,-9.96868 z m -19.96875,2.375 c -0.04221,0.008 -0.08397,0.0184 -0.125,0.0312 -0.03123,-0.001 -0.06252,-0.001 -0.09375,0 -0.343277,0.0812 -0.642016,0.33214 -0.78125,0.65625 l -3.09375,6.56243 -2.40625,5.0937 -1.5,-4.9375 c -0.138272,-0.4671 -0.606593,-0.815 -1.09375,-0.8125 l -4.8125,0 c -0.597243,0 -1.14065,0.5435 -1.14065,1.1407 0,0.5972 0.543407,1.1406 1.14065,1.1406 l 3.96875,0 2.15625,6.9375 c 0.261968,0.857 1.683679,0.9844 2.09375,0.1875 l 3.6875,-7.8125 1.96875,-4.18743 1.65625,4.15613 c 0.162627,0.4133 0.587259,0.7093 1.03125,0.7188 l 1.53125,0 2.375,0 3.46875,0 2.34375,0 4.0625,0 c 0.5564,1.6352 2.09635,2.8125 3.90625,2.8125 2.2585,0 4.125,-1.8353 4.125,-4.0938 0,-2.2583 -1.8665,-4.12488 -4.125,-4.12488 -1.9106,0 -3.5356,1.34904 -4,3.12488 l -3.96875,0 -2.375,0 -3.5,0 -2.3125,0 -0.75,0 -2.375,-5.87488 c -0.166535,-0.42283 -0.608064,-0.72151 -1.0625,-0.71875 z" fill="#000000" fill-opacity="1" fill-rule="nonzero" stroke="none" marker="none" visibility="visible" display="inline" overflow="visible"/></g><text x="0" y="115" fill="#000000" font-size="5px" font-weight="bold" font-family="'Helvetica Neue', Helvetica, Arial-Unicode, Arial, Sans-serif">Created by Dalpat Prajapati</text><text x="0" y="120" fill="#000000" font-size="5px" font-weight="bold" font-family="'Helvetica Neue', Helvetica, Arial-Unicode, Arial, Sans-serif">from the Noun Project</text></svg>