<svg xmlns="http://www.w3.org/2000/svg" xmlns:xlink="http://www.w3.org/1999/xlink" version="1.1" x="0px" y="0px" viewBox="0 0 91 113.75" style="enable-background:new 0 0 91 91;" xml:space="preserve"><g><path d="M73.4,5.9l0,3.3l3.1,0l0-8.8h-9.4v3.1h4.2L45.8,32.1l-11.5-8L21.4,41.5l2.5,1.9L35,28.4l11.3,7.9l19.1-21.4h14.9v44.7h-5.4   V23.9h-10v35.7h-4.3V45.2h-10v14.4h-4.3V41.2h-10v18.4H32V51H22v8.6H11.5v-6.8h5.6v-3.1h-5.6v-11h5.6v-3.1h-5.6v-11h5.6v-3.1h-5.6   v-6.5h46.2v-3.1H47.4V7h-3.1v4.7H4.7v3.1h3.6v47.9h18L15.6,89.5l2.9,1.2l4.1-10.2l21.7-6.7v7h3.1v-7l21.7,6.7l4.1,10.2l2.9-1.2   L65.3,62.8h18V14.9H87v-3.1H68.1L73.4,5.9z M24.1,76.8l5.6-14h14.5v7.8L24.1,76.8z M67.6,76.8l-20.2-6.3v-7.8H62L67.6,76.8z"/></g><text x="0" y="106" fill="#000000" font-size="5px" font-weight="bold" font-family="'Helvetica Neue', Helvetica, Arial-Unicode, Arial, Sans-serif">Created by BomSymbols</text><text x="0" y="111" fill="#000000" font-size="5px" font-weight="bold" font-family="'Helvetica Neue', Helvetica, Arial-Unicode, Arial, Sans-serif">from the Noun Project</text></svg>