<svg xmlns="http://www.w3.org/2000/svg" xmlns:xlink="http://www.w3.org/1999/xlink" version="1.1" x="0px" y="0px" viewBox="0 0 64 80" enable-background="new 0 0 64 64" xml:space="preserve"><path fill="#000000" d="M2.933,48.36h24v6.916h-9.125v4h28.25v-4h-9.125V48.36h24c1.65,0,3-1.35,3-3V7.694c0-1.65-1.35-3-3-3h-58  c-1.65,0-3,1.35-3,3V45.36C-0.067,47.01,1.283,48.36,2.933,48.36z M3.933,8.694h56V44.36h-56V8.694z"/><path fill="#000000" d="M32.018,13.904c-15.597,0-21.481,12.591-21.481,12.591s5.849,12.591,21.445,12.591  c15.596,0,21.481-12.591,21.481-12.591S47.615,13.904,32.018,13.904z M31.982,35.086c-9.635,0-14.783-5.662-16.799-8.585  c2.033-2.938,7.2-8.597,16.835-8.597c9.636,0,14.784,5.661,16.799,8.585C46.794,29.407,41.617,35.086,31.982,35.086z"/><path fill="#000000" d="M32,20.071c-3.548,0-6.424,2.876-6.424,6.424c0,3.548,2.876,6.424,6.424,6.424  c3.548,0,6.424-2.876,6.424-6.424C38.424,22.947,35.548,20.071,32,20.071z M32,28.533c-1.126,0-2.038-0.912-2.038-2.038  s0.913-2.038,2.038-2.038c1.126,0,2.038,0.913,2.038,2.038S33.126,28.533,32,28.533z"/><text x="0" y="79" fill="#000000" font-size="5px" font-weight="bold" font-family="'Helvetica Neue', Helvetica, Arial-Unicode, Arial, Sans-serif">Created by AlfredoCreates.com/Icons</text><text x="0" y="84" fill="#000000" font-size="5px" font-weight="bold" font-family="'Helvetica Neue', Helvetica, Arial-Unicode, Arial, Sans-serif">from the Noun Project</text></svg>