<svg xmlns="http://www.w3.org/2000/svg" xmlns:xlink="http://www.w3.org/1999/xlink" version="1.1" x="0px" y="0px" viewBox="0 0 90 112.5" style="enable-background:new 0 0 90 90;" xml:space="preserve"><style type="text/css">
	.st0{fill-rule:evenodd;clip-rule:evenodd;}
</style><path d="M36,39.2c0-3.5,3.5-6.2,7-6.2h30.6c-1.1-1-2.4-1.8-3.8-2.4l-0.4-1.8c-0.8-3.2-2.9-5.8-5.9-7.1  c-3-1.4-6.3-1.3-9.2,0.1l-0.5,0.3l-2.5-3.2c-5.1-6.4-13.1-9-20.9-6.8c-7.9,2.2-13.4,8.5-14.5,16.6l-0.4,3l-2.7,1.5  c-6.4,3.4-9.4,10.6-7.6,17.6c1.8,7,7.6,12.1,14.8,12.1H36V39.2z"/><path d="M81.5,37H44.6c-2,0-3.6,1.8-3.6,3.8v11.1v23.7c0,2,1.5,4.4,3.6,4.4h36.9c2,0,3.5-2.4,3.5-4.4V51.9V40.8  C85,38.8,83.5,37,81.5,37z M81,75H45V56h36V75z M76.4,41.3c1.8,0,3.3,1.5,3.3,3.3c0,1.8-1.5,3.3-3.3,3.3c-1.8,0-3.3-1.5-3.3-3.3  C73,42.8,74.5,41.3,76.4,41.3z M67.2,41.3c1.8,0,3.3,1.5,3.3,3.3c0,1.8-1.5,3.3-3.3,3.3s-3.3-1.5-3.3-3.3  C63.9,42.8,65.4,41.3,67.2,41.3z M58.1,41.3c1.8,0,3.3,1.5,3.3,3.3c0,1.8-1.5,3.3-3.3,3.3c-1.8,0-3.3-1.5-3.3-3.3  C54.8,42.8,56.3,41.3,58.1,41.3z"/><text x="0" y="105" fill="#000000" font-size="5px" font-weight="bold" font-family="'Helvetica Neue', Helvetica, Arial-Unicode, Arial, Sans-serif">Created by Petr Papasov</text><text x="0" y="110" fill="#000000" font-size="5px" font-weight="bold" font-family="'Helvetica Neue', Helvetica, Arial-Unicode, Arial, Sans-serif">from the Noun Project</text></svg>